<svg width="15" height="16" viewBox="0 0 15 16" fill="none" xmlns="http://www.w3.org/2000/svg">
<g id="Mask group">
<mask id="mask0_15_544" style="mask-type:alpha" maskUnits="userSpaceOnUse" x="0" y="0" width="15" height="16">
<g id="Group">
<path id="Vector" d="M14.7715 0.890015H0.375977V15.28H14.7715V0.890015Z" fill="#D9D9D9"/>
</g>
</mask>
<g mask="url(#mask0_15_544)">
<g id="Group_2">
<path id="Vector_2" d="M1.89024 11.3674C1.76301 11.2402 1.70205 11.0892 1.70735 10.9144C1.71265 10.7394 1.77362 10.5937 1.89024 10.4772L5.24602 7.07496C5.48988 6.83119 5.79206 6.70931 6.15256 6.70931C6.51305 6.70931 6.81523 6.83119 7.05909 7.07496L8.69721 8.72836L12.0053 5.45336H10.9875C10.8072 5.45336 10.6561 5.39242 10.5342 5.27053C10.4122 5.14865 10.3513 4.99762 10.3513 4.81744C10.3513 4.63726 10.4122 4.48623 10.5342 4.36434C10.6561 4.24246 10.8072 4.18152 10.9875 4.18152H13.5321C13.7124 4.18152 13.8634 4.24246 13.9853 4.36434C14.1073 4.48623 14.1682 4.63726 14.1682 4.81744V7.36112C14.1682 7.5413 14.1073 7.69233 13.9853 7.81422C13.8634 7.9361 13.7124 7.99705 13.5321 7.99705C13.3518 7.99705 13.2008 7.9361 13.0788 7.81422C12.9569 7.69233 12.8959 7.5413 12.8959 7.36112V6.34365L9.60372 9.63454C9.35988 9.87829 9.05773 10.0002 8.69721 10.0002C8.33673 10.0002 8.03455 9.87829 7.79068 9.63454L6.15256 7.99705L2.78088 11.3674C2.66425 11.4841 2.51581 11.5423 2.33556 11.5423C2.15531 11.5423 2.00688 11.4841 1.89024 11.3674Z" fill="#E1FE03"/>
</g>
</g>
</g>
</svg>
